#!OML:ASF I:\Actors\actors\Patient Classification 1\Patient 1\Session 1\Subject1.ASF
:FULLY-SPECIFIED
:DEGREES
238
root -0.101657 17.4999 8.52441 2.73257 46.9137 -11.3841
lowerback -1.5108 6.96694 9.79761
upperback -7.79609 9.71348 -0.490328
thorax -5.73312 4.33756 -6.11307
lowerneck -3.14232 5.86302 9.26662
upperneck 21.1244 6.6248 5.21807
head 7.19046 4.50025 0.669618
rclavicle 9.7653e-015 1.31198e-014
rhumerus -10.4479 30.1772 -101.945
rradius 134.094
rwrist 34.9823
rhand 36.1436 -49.7871
rfingers 7.12502
rthumb 59.1289 -64.4504
lclavicle 9.7653e-015 1.31198e-014
lhumerus -22.5874 -28.5259 102.985
lradius 138.592
lwrist -21.1453
lhand 53.531 14.7629
lfingers 7.12502
lthumb 72.0714 2.42246
rfemur 1.19095 7.16625 31.2484
rtibia 4.91134
rfoot -38.9938 -43.3085
rtoes 33.9656
lfemur -18.0005 -34.841 0.539848
ltibia 1.36599
lfoot -3.27407 4.15869
ltoes -27.8837
239
root -0.0968607 17.4981 8.53955 2.09762 48.7817 -11.6934
lowerback -1.29275 7.05832 9.95035
upperback -7.74814 9.85449 -0.664555
thorax -5.72914 4.39599 -6.3976
lowerneck -3.40235 5.72752 9.5003
upperneck 21.0587 6.39614 5.21833
head 7.22149 4.41249 0.623984
rclavicle 1.35372e-013 1.39149e-014
rhumerus -10.1789 29.9214 -101.925
rradius 134.071
rwrist 35.2251
rhand 36.9108 -50.0941
rfingers 7.12502
rthumb 59.7888 -64.0942
lclavicle 1.35372e-013 1.39149e-014
lhumerus -22.592 -28.7063 102.807
lradius 138.581
lwrist -21.3913
lhand 53.9711 14.9073
lfingers 7.12502
lthumb 72.3052 1.40623
rfemur 1.09402 5.60102 31.3144
rtibia 5.66131
rfoot -38.8104 -43.549
rtoes 33.685
lfemur -18.3047 -34.5068 0.330583
ltibia 1.52744
lfoot -3.33093 2.16454
ltoes -27.5058
240
root -0.0943574 17.4967 8.55342 1.546 50.1422 -11.9865
lowerback -1.30497 6.97206 9.48546
upperback -7.62942 9.73692 -0.343872
thorax -5.73291 4.37677 -5.81109
lowerneck -3.45093 5.75283 9.29834
upperneck 21.0845 6.46163 5.16012
head 7.23126 4.4271 0.644049
rclavicle 4.65156e-014 5.1684e-015
rhumerus -10.927 29.86 -102.304
rradius 134.297
rwrist 35.4409
rhand 37.5482 -49.7181
rfingers 7.12502
rthumb 60.3335 -63.1435
lclavicle 4.65156e-014 5.1684e-015
lhumerus -22.6303 -28.2241 102.917
lradius 138.496
lwrist -21.6012
lhand 53.7919 14.5544
lfingers 7.12502
lthumb 72.2109 1.5298
rfemur 0.978553 4.43442 31.4092
rtibia 6.39511
rfoot -38.5499 -43.6689
rtoes 33.5209
lfemur -18.4873 -34.1554 0.149278
ltibia 1.68751
lfoot -3.33322 0.560427
ltoes -27.0936
241
root -0.0919645 17.4941 8.56468 1.19735 51.0466 -12.143
lowerback -1.19585 6.94435 9.11935
upperback -7.61613 9.71347 -0.189537
thorax -5.86195 4.38362 -5.47435
lowerneck -3.38875 5.66797 9.12159
upperneck 21.0582 6.35767 5.27856
head 7.19714 4.37562 0.698565
rclavicle -8.63222e-014 -1.80894e-014
rhumerus -11.2646 29.957 -102.238
rradius 134.209
rwrist 35.4959
rhand 37.5583 -49.3646
rfingers 7.12502
rthumb 60.3422 -62.7807
lclavicle -8.63222e-014 -1.80894e-014
lhumerus -22.6141 -27.6484 103.531
lradius 138.067
lwrist -21.8125
lhand 54.3991 13.9774
lfingers 7.12502
lthumb 72.5251 -0.682001
rfemur 0.89392 3.72584 31.4537
rtibia 6.95492
rfoot -38.4497 -43.7265
rtoes 33.1961
lfemur -18.57 -34.0793 -0.00604189
ltibia 1.77985
lfoot -3.36199 -0.326316
ltoes -26.9373
242
root -0.0847798 17.5005 8.57963 0.821474 51.2758 -11.9911
lowerback -0.882513 7.12722 9.10436
upperback -7.3771 9.95388 -0.398497
thorax -5.70726 4.5084 -5.6999
lowerneck -3.67517 5.44358 9.06554
upperneck 20.9883 5.96423 5.6027
head 7.20616 4.21134 0.789345
rclavicle -2.59414e-014 -1.49089e-014
rhumerus -10.3066 29.6945 -101.825
rradius 133.942
rwrist 35.3869
rhand 38.0923 -49.698
rfingers 7.12502
rthumb 60.7958 -62.6147
lclavicle -2.59414e-014 -1.49089e-014
lhumerus -22.5842 -28.3377 103.188
lradius 138.241
lwrist -21.7239
lhand 54.3837 13.8385
lfingers 7.12502
lthumb 72.5173 -0.77892
rfemur 1.34489 3.38202 31.3912
rtibia 7.18839
rfoot -38.1986 -43.7682
rtoes 32.6391
lfemur -17.7017 -34.2447 -0.651193
ltibia 1.5038
lfoot -3.36351 -0.447491
ltoes -26.9393
243
root -0.0785001 17.4953 8.58791 0.762647 51.1999 -11.9569
lowerback -0.923112 7.02461 8.60019
upperback -7.32719 9.80763 -0.160166
thorax -5.76628 4.46787 -5.18192
lowerneck -3.84223 5.33058 8.78818
upperneck 21.3261 5.77802 5.75741
head 7.32756 4.13301 0.883124
rclavicle 3.40916e-014 1.96797e-014
rhumerus -11.3466 29.6855 -101.99
rradius 134.001
rwrist 35.2741
rhand 38.1876 -48.4974
rfingers 7.12502
rthumb 60.8765 -61.3234
lclavicle 3.40916e-014 1.96797e-014
lhumerus -22.7908 -28.0586 103.443
lradius 138.34
lwrist -21.9422
lhand 54.5159 13.599
lfingers 7.12502
lthumb 72.5838 -1.38177
rfemur 1.40611 3.32616 31.3687
rtibia 7.30932
rfoot -37.9567 -43.8115
rtoes 32.336
lfemur -17.3683 -34.3235 -0.792938
ltibia 1.30459
lfoot -3.39007 -0.175254
ltoes -27.1852
244
root -0.0757546 17.4809 8.59006 1.08545 50.8763 -11.9994
lowerback -1.41833 6.9365 8.43883
upperback -7.33154 9.63558 -0.142396
thorax -5.53993 4.40624 -5.01069
lowerneck -3.95562 5.01668 8.14394
upperneck 21.1978 5.30166 6.26847
head 7.25796 3.89253 1.11148
rclavicle -2.81777e-014 3.45885e-014
rhumerus -11.2485 29.3142 -102.262
rradius 133.971
rwrist 35.0566
rhand 39.1886 -48.2043
rfingers 7.12502
rthumb 61.7192 -60.0434
lclavicle -2.81777e-014 3.45885e-014
lhumerus -22.8244 -27.9295 103.775
lradius 138.321
lwrist -22.146
lhand 55.0209 13.6666
lfingers 7.12502
lthumb 72.8311 -2.72879
rfemur 1.01856 3.555 31.3698
rtibia 7.36316
rfoot -37.7664 -43.7821
rtoes 32.1039
lfemur -17.6854 -34.1332 -0.452803
ltibia 1.28068
lfoot -3.46256 0.260365
ltoes -27.3873
